<svg width="354" height="363" viewBox="0 0 354 363" fill="none" xmlns="http://www.w3.org/2000/svg">
<path d="M250.99 267.448H308.594C326.773 267.448 341.51 252.711 341.51 234.531V106.339C341.51 93.3418 337.729 80.5478 328.608 71.2887C307.27 49.6279 258.669 12.3438 176.927 12.3438C95.1848 12.3438 46.584 49.6279 25.246 71.2887C16.1249 80.5478 12.3438 93.3418 12.3438 106.339V234.531C12.3438 252.711 27.081 267.448 45.2604 267.448H102.865M234.531 349.74L259.219 185.156H94.6354L119.323 349.74L176.927 292.135L234.531 349.74ZM234.531 349.74L102.865 218.066M152.24 185.157L239.686 272.603M111.094 135.781V111.094C111.094 102.004 118.462 94.6354 127.552 94.6354H226.302C235.392 94.6354 242.76 102.004 242.76 111.094V135.781M292.135 185.156H61.7188" stroke="#26272B" stroke-opacity="0.05" stroke-width="24.6875" stroke-linecap="round" stroke-linejoin="round"/>
</svg>
