<svg width="96" height="140" viewBox="0 0 96 140" fill="none" xmlns="http://www.w3.org/2000/svg">
<g clip-path="url(#clip0_45_2)">
<path fill-rule="evenodd" clip-rule="evenodd" d="M13.9955 39.3227C-3.32148 29.7331 -0.728676 6.3292 17.1598 0.720586C26.825 -1.54827 39.0734 1.91564 55.4524 14.547C72.6337 28.4455 86.1309 33.0267 95.7191 26.8742C87.8625 37.5288 73.7076 34.8249 54.6956 22.4661C37.2746 8.50317 -4.3755 4.01799 13.9953 39.3228L13.9955 39.3227Z" fill="#FEFEFE" stroke="#2B2A29" stroke-width="0.0579895" stroke-miterlimit="22.9256"/>
<path fill-rule="evenodd" clip-rule="evenodd" d="M14.059 39.2976C6.41862 26.0013 6.39623 12.8984 24.4535 10.8722C31.922 10.6726 33.2188 10.9253 47.507 17.251C52.1409 19.3434 78.9213 41.2798 95.8255 26.8886C91.2037 35.9978 83.0634 40.1076 61.3619 32.5054C47.3277 26.0716 10.6373 8.55771 14.059 39.2978V39.2976Z" fill="#393185"/>
<path fill-rule="evenodd" clip-rule="evenodd" d="M26.4151 30.5299C20.8487 30.677 17.0318 34.1871 14.0799 39.4147C9.51002 12.468 37.7424 20.4574 50.82 27.4372C64.166 34.0059 87.8629 43.5821 95.678 27.1377C90.1595 48.5634 58.4581 38.2536 48.6276 33.4665C41.4718 30.9877 34.2043 29.1831 26.4151 30.5301V30.5299Z" fill="#E31E24"/>
<path fill-rule="evenodd" clip-rule="evenodd" d="M58.4561 51.4271C48.3887 55.7527 31.3065 64.4716 22.6336 66.8197C20.6099 67.3675 16.9226 67.8892 14.9151 67.111C13.8345 66.6921 12.765 65.9672 13.3415 64.6372C15.2778 62.3338 23.5574 62.4247 23.0072 62.4207C19.7079 60.1153 13.4004 59.5183 8.8077 61.0335C6.58532 61.6847 5.1401 62.7707 4.79767 65.7388C4.72254 69.6718 10.9418 71.2073 14.086 71.5325C31.5955 72.9175 42.8598 60.1073 55.6074 59.8461C58.7247 59.7826 63.8395 59.3671 66.2317 61.9208C67.2786 63.0382 68.1528 64.8219 67.4117 66.3545C66.3447 68.5609 63.3708 69.4467 61.2845 70.2771L59.046 71.0477C58.7733 71.1537 58.5428 71.2091 58.5163 71.4885C58.6917 71.6725 58.8201 71.6403 59.1396 71.6407C63.1841 71.6469 68.6847 71.857 72.5937 71.1471C76.4539 70.5518 94.0284 67.4818 91.8315 56.3647C87.5598 46.9081 71.4906 45.8255 58.4558 51.4271H58.4561Z" fill="#232A33"/>
<path fill-rule="evenodd" clip-rule="evenodd" d="M11.9603 59.8249C14.9551 59.1154 20.7002 60.508 22.863 61.7596C22.6717 59.6293 19.5182 49.7011 18.4477 48.4055C17.7345 48.3603 15.9665 48.3208 15.323 48.2123C15.2726 48.1068 14.7877 45.1732 14.96 44.9751C15.7574 44.7527 22.0337 44.0243 22.2069 43.9009C23.0855 43.2748 22.4816 41.4353 22.4788 40.7769C22.2486 40.4546 22.8605 40.4219 20.2731 40.4484C17.6516 40.4553 3.62524 40.1128 1.93024 40.552C1.55132 40.6502 1.32538 40.7573 1.21846 41.1281C0.996676 41.8967 0.746896 43.6164 1.49371 44.1499C2.35484 44.7647 8.93636 44.982 10.076 45.2823C10.5636 46.3103 10.8163 48.0145 10.8055 48.3041C10.1222 48.3766 6.85215 48.4439 7.40282 49.1663C7.54153 49.3483 11.5395 58.6009 11.9601 59.8251L11.9603 59.8249Z" fill="#E31E24"/>
<path fill-rule="evenodd" clip-rule="evenodd" d="M32.8754 98.4869C33.1485 98.4149 34.8406 96.087 35.0975 95.7685C35.0335 95.468 25.7147 70.32 25.898 70.4631C26.358 70.8217 19.3546 72.2438 17.9589 71.8205L17.7931 72.4718L20.7787 72.4694L18.7613 76.5371C18.6696 76.8445 20.2306 76.6069 20.3286 76.7557C25.1301 82.5172 29.0081 92.9304 32.8756 98.4867L32.8754 98.4869Z" fill="#E31E24"/>
<path fill-rule="evenodd" clip-rule="evenodd" d="M63.3783 108.948C63.5365 108.875 65.482 109.087 65.8241 109.184C66.3403 109.331 66.5008 109.312 66.6072 109.348C66.4136 106.036 66.8725 104.049 68.2583 101.654C71.4468 96.1445 78.821 93.9258 84.5758 97.075C90.3549 100.237 92.6951 107.231 89.8734 113.268C88.8599 115.437 87.3892 117.005 85.4307 118.344C83.7095 119.521 80.5729 120.579 77.8506 120.25L77.7538 120.081C77.7236 120.365 76.7368 120.138 76.4994 120.083C76.0748 119.984 76.4321 119.987 75.7252 119.94L75.4423 119.888C74.8929 119.635 74.6784 119.629 74.4203 119.504L74.1283 119.321C74.1183 119.309 74.0842 119.235 74.073 119.218C74.1304 119.414 74.1021 119.26 74.023 119.314C72.2339 118.68 69.8888 116.71 68.8101 115.132C68.6105 114.84 68.3582 114.462 68.1818 114.162C68.055 113.947 67.74 113.261 67.6132 113.14C67.6815 113.077 67.5278 113.085 67.747 113.095C67.4931 112.944 67.0766 112.857 66.8783 112.743C66.756 112.673 66.9352 112.743 66.762 112.681C66.7188 112.666 66.5772 112.645 66.5202 112.632C65.7546 112.462 66.1026 112.505 65.8669 112.422C65.6854 112.358 65.3139 112.407 65.0507 112.327L64.0827 112.152L64.0422 112.452C64.149 113.37 65.2415 115.436 65.7258 116.219C67.5402 119.15 69.9985 121.086 73.1299 122.405C74.17 122.843 74.4326 122.798 75.1792 123.059L75.939 123.2C76.2298 123.244 76.4548 123.268 76.7698 123.312C77.3581 123.396 78.2699 123.303 78.4153 123.474C84.6503 123.71 89.9213 120.048 92.5119 115.098C94.1089 112.046 94.0223 109.733 94.2217 109.293V106.669C94.1271 106.458 94.0424 105.486 93.9891 105.152C93.7908 103.913 93.2031 102.184 92.6642 101.139C90.9607 97.8345 88.8978 95.7405 85.6017 94.0267C84.452 93.4288 82.9533 92.9747 81.617 92.7027C81.2492 92.6278 80.3628 92.6026 80.0948 92.46H77.4998C77.2033 92.6069 74.423 92.6475 71.6062 94.2321C70.7624 94.7069 70.0118 95.1474 69.2759 95.7409C67.1756 97.4344 65.3448 99.7291 64.4007 102.344C63.463 104.941 63.3709 106.194 63.3783 108.947V108.948Z" fill="#E31E24"/>
<path fill-rule="evenodd" clip-rule="evenodd" d="M0.00012207 107.164V108.588C0.0909676 108.808 0.141176 109.924 0.182355 110.297C0.317088 111.519 0.998701 113.652 1.53781 114.682C3.3885 118.219 5.74362 120.59 9.32434 122.25C10.8387 122.952 13.7068 123.645 15.7861 123.478C15.9808 123.289 15.8724 123.274 15.9629 122.68C16.0066 122.393 15.9967 122.101 16.0588 121.834C16.1211 121.566 16.1728 121.332 16.2212 121.041C16.2458 120.893 16.27 120.813 16.3158 120.669L16.348 120.396C16.3456 120.382 16.3362 120.36 16.3335 120.349C16.3308 120.337 16.324 120.316 16.3164 120.301C14.4243 120.212 14.0265 120.37 12.0439 119.812C8.58241 118.837 6.02428 116.47 4.34337 113.228C3.26948 111.157 2.82699 107.394 3.5077 105.184C3.6018 104.878 3.67187 104.501 3.76705 104.19C5.01216 100.117 8.91238 96.4619 13.2466 95.8361C16.0372 95.4333 18.6356 95.6522 21.1798 97.0481C24.2591 98.7376 26.5985 101.578 27.3992 105.135C27.6414 106.211 27.9103 108.248 27.6235 109.439C27.3871 111.082 27.4967 110.476 27.0553 112.048C26.9695 112.354 26.84 112.545 26.73 112.863L25.5544 114.919C24.7601 116.156 23.4771 117.368 22.2759 118.2C21.7626 118.556 20.7246 119.14 20.129 119.369C19.8491 119.861 19.6388 120.545 19.4727 121.074C19.3844 121.355 19.2941 121.75 19.2523 122.042C19.2047 122.374 19.1048 122.712 19.0853 123.025C19.9827 123.002 22.258 121.9 23.0041 121.487C25.2489 120.246 27.276 118.243 28.5832 116.074C29.2025 115.047 30.0749 113.423 30.2947 112.181C30.932 110.218 31.1052 107.35 30.6895 105.377C30.4697 104.226 30.2434 103.431 29.8746 102.394C28.6701 99.0074 25.8476 95.9463 22.7341 94.2866C21.1494 93.4419 19.548 92.892 17.771 92.6049C17.6337 92.5827 17.4501 92.566 17.3498 92.5544L16.9304 92.46H14.1321C13.8995 92.576 12.9192 92.6447 12.5556 92.7174C11.08 93.0127 9.88079 93.4148 8.5573 94.0737C5.33725 95.6769 3.05383 98.1759 1.45961 101.4C0.111737 104.126 0.139732 106.856 0.000302678 107.165L0.00012207 107.164Z" fill="#037BBB"/>
<path fill-rule="evenodd" clip-rule="evenodd" d="M48.0655 120.259C48.044 120.651 47.9703 120.724 47.9096 120.995C47.844 121.289 47.8058 121.547 47.7588 121.812C47.6578 122.382 47.6159 122.848 47.5672 123.482C47.2634 125.565 47.9029 128.242 48.5914 130.147C49.8764 133.702 52.808 136.676 56.0165 138.323C57.4964 139.083 58.7513 139.442 60.3867 139.791C60.8389 139.888 61.8707 139.865 62.1852 140.002H63.6062C63.8083 139.919 64.9913 139.867 65.3557 139.811C70.6745 138.984 75.3742 135.252 77.3098 130.212C77.8857 128.712 78.3095 127.052 78.3786 125.423C78.3918 125.111 78.364 123.591 78.4153 123.479C78.2697 123.308 77.358 123.401 76.7698 123.318C76.4548 123.273 76.2298 123.249 75.939 123.205L75.1792 123.064C75.1299 125.645 75.3768 126.158 74.4473 128.816C72.2159 135.197 64.3377 138.873 57.5875 135.556C53.3737 133.485 50.6902 129.207 50.692 124.473C50.6922 124.121 50.6917 123.2 50.8649 122.987C50.7383 122.205 51.2106 120.794 51.4945 120.054C51.5436 119.926 51.5931 119.777 51.6549 119.627C51.773 119.341 51.7497 119.48 51.9187 119.29L51.8313 119.284C53.1147 116.346 55.3909 114.422 58.182 113.093C58.2958 113.169 58.2125 113.066 58.2432 113.238C58.2965 113.175 58.26 113.234 58.3164 113.12C58.7336 112.276 59.251 110.265 59.3211 109.366C59.0255 109.49 58.0348 109.715 57.2701 110.036C56.6091 110.314 55.975 110.615 55.3913 110.936C54.1151 111.637 52.5794 112.828 51.5575 114.01C50.2575 115.514 49.0621 117.29 48.4269 119.219C48.312 119.568 48.1912 120.039 48.0658 120.259L48.0655 120.259Z" fill="#029248"/>
<path fill-rule="evenodd" clip-rule="evenodd" d="M31.6613 109.151C31.8309 109.456 34.348 109.365 34.9433 109.661L34.9176 109.259C34.6382 104.814 35.9785 101.986 38.1424 99.5549C40.3015 97.1288 43.7036 95.6227 47.2284 95.6284C52.6769 95.6373 56.9962 99.2257 58.6487 103.722C59.1588 105.11 59.6823 107.781 59.3208 109.36C59.2507 110.26 58.7333 112.27 58.3161 113.114C58.2597 113.228 58.2962 113.169 58.2429 113.233C58.0739 113.456 57.8636 113.958 57.7139 114.217C57.3247 114.889 56.9232 115.388 56.4137 115.99C55.3084 117.296 53.5097 118.716 51.9186 119.285C51.7493 119.475 51.7728 119.336 51.6547 119.622C51.5929 119.771 51.5436 119.92 51.4943 120.048C51.2104 120.788 50.7381 122.2 50.8647 122.982C52.5404 122.769 55.0953 121.309 56.4256 120.328C58.8319 118.553 60.6092 116.068 61.6651 113.216C61.7702 112.932 61.9 112.399 62.0228 112.158C62.0626 111.902 62.1377 111.691 62.1937 111.37C62.2396 111.108 62.3077 110.842 62.3584 110.587C62.4494 110.13 62.4415 109.26 62.6042 108.946C62.5134 108.711 62.582 107.472 62.5627 107.087C62.5331 106.499 62.4644 105.937 62.3716 105.375C62.1989 104.33 61.8894 103.293 61.5289 102.373C60.7355 100.348 59.8214 98.9908 58.6446 97.6271C56.7975 95.4866 54.3541 93.9738 51.6316 93.1176C51.151 92.9665 50.6419 92.8438 50.1414 92.7394L48.4858 92.46H45.7326C45.7162 92.4688 45.695 92.476 45.6808 92.4808C45.6665 92.4853 45.6461 92.4946 45.6284 92.4998C45.2619 92.6075 44.0356 92.6664 42.545 93.1403C39.7388 94.0327 37.5798 95.4948 35.6551 97.5835C34.4706 98.8687 33.5389 100.397 32.7455 102.304C32.3743 103.196 32.1274 104.234 31.9188 105.262C31.5845 106.909 31.7709 108.396 31.6609 109.151H31.6613Z" fill="#231C16"/>
<path fill-rule="evenodd" clip-rule="evenodd" d="M16.3166 120.304C16.3242 120.319 16.331 120.34 16.3337 120.352C16.3363 120.363 16.3458 120.385 16.3482 120.399L16.316 120.672C16.2702 120.816 16.2461 120.896 16.2214 121.044C16.173 121.335 16.1212 121.569 16.059 121.837C15.9969 122.104 16.007 122.396 15.9631 122.683C15.8726 123.277 15.981 123.292 15.7863 123.481C15.8987 123.632 15.8279 123.482 15.8477 123.698L15.845 124.411C15.8436 125.94 15.9561 125.545 15.9911 126.189C16.0372 127.034 16.1979 127.887 16.4372 128.668C16.5329 128.981 16.8472 130.132 16.9809 130.318C17.0851 130.462 17.1084 130.39 17.1755 130.58C17.6085 131.803 18.3587 133.146 19.1951 134.137C19.2029 134.146 19.2155 134.158 19.2236 134.167L19.6629 134.613C19.9015 134.814 20.1232 135.197 20.3342 135.417C20.3373 135.42 20.4424 135.524 20.4534 135.535C20.6938 135.769 21.5235 136.52 21.781 136.644C22.3938 136.94 21.9329 136.715 22.1861 136.98L22.7269 137.395C23.0458 137.642 23.8228 138.048 24.2227 138.262L25.3898 138.8C25.7394 139.014 25.7078 138.876 26.2559 139.124C26.4458 139.21 26.3405 139.191 26.5884 139.262L27.7418 139.579C28.0689 139.637 28.2282 139.657 28.5376 139.725C28.8616 139.797 28.9322 139.843 29.3239 139.868C29.5044 139.88 30.1175 139.834 30.1518 139.999H32.2763C32.6541 139.789 33.4756 139.897 33.9157 139.758C34.1615 139.68 34.4579 139.66 34.7075 139.614C35.5888 139.452 37.5172 138.717 38.2999 138.304C38.4144 138.244 38.5044 138.188 38.5909 138.124C38.6854 138.053 38.6335 138.075 38.7256 138.03C39.5057 137.653 39.5599 137.524 40.1826 137.117L40.4838 136.942C40.8976 136.568 40.7517 136.777 40.9341 136.624L41.5128 136.082C41.5218 136.073 41.5341 136.061 41.5431 136.053C41.6009 135.998 41.65 135.961 41.7017 135.918L44.3261 132.749C44.8173 132.053 44.4426 132.651 44.8616 131.869C45.0138 131.584 44.8883 131.679 45.1191 131.362L45.2649 131.084C45.2712 131.072 45.2784 131.056 45.2851 131.044C45.4608 130.728 45.3514 131.051 45.5203 130.585C45.5757 130.432 45.519 130.574 45.597 130.419L46.5205 127.145C46.6776 126.398 46.8232 124.189 46.6427 123.467C46.0668 123.409 45.5096 123.4 44.9694 123.317C44.4187 123.233 44.001 123.136 43.4713 123.031C43.5379 123.766 43.5482 124.494 43.5292 125.299C43.507 126.249 43.0929 128.143 42.7035 129.044C42.6658 129.132 42.6567 129.171 42.6192 129.254L42.535 129.404C42.3428 129.705 42.477 129.563 42.3647 129.831C42.3127 129.954 42.2103 130.026 42.1386 130.191C41.7345 131.121 41.2191 131.811 40.5295 132.547L40.2548 132.859C39.5835 133.646 39.5683 133.464 39.3713 133.687C39.1327 133.957 39.1782 133.86 38.8687 134.126L38.62 134.358C38.417 134.597 37.9828 134.715 37.7393 134.953L37.4581 135.142C37.13 135.251 37.3359 135.217 37.0695 135.344L36.6907 135.56C36.3664 135.788 35.6968 135.905 35.4527 136.031C34.8791 136.326 34.8458 136.287 34.1918 136.432C33.8337 136.511 33.5937 136.576 33.2142 136.627C30.6097 136.973 29.5361 136.825 27.2988 136.12C26.9571 136.012 26.7828 135.898 26.4947 135.802C25.8012 135.571 26.2478 135.609 25.6977 135.427C25.2404 135.275 25.5779 135.313 25.3395 135.191C25.1669 135.103 25.1725 135.206 24.9437 135.043L24.5821 134.812C24.484 134.745 24.5647 134.797 24.4871 134.732L24.2839 134.581C23.9397 134.348 24.0545 134.221 23.5734 134.173C23.5013 133.735 23.5113 134.09 23.0932 133.649C23.0057 133.557 22.9526 133.502 22.8544 133.415L22.6102 133.186C22.4157 132.97 22.2799 132.893 22.1166 132.674C22.0436 132.576 21.9855 132.483 21.9134 132.405L21.5983 132.01C21.5907 132 21.5788 131.988 21.571 131.978C21.1079 131.404 20.8711 130.959 20.5114 130.383C20.2498 129.965 19.9721 129.165 19.8993 129.04L19.6571 128.323C19.5738 128.041 19.4945 127.885 19.4144 127.576C19.3369 127.278 19.3145 127.097 19.2536 126.785C19.2009 126.515 19.1918 126.664 19.1483 126.366C19.1254 126.207 19.1126 126.095 19.0983 125.946C19.0226 125.151 19.0625 123.826 19.0857 123.027C19.1052 122.714 19.205 122.376 19.2527 122.044C19.2946 121.752 19.3847 121.358 19.4731 121.076C19.6392 120.547 19.8494 119.863 20.1294 119.371C20.0828 119.275 20.1545 119.182 20.1897 119.135C20.3094 118.974 20.2932 119.056 20.3741 118.901C20.4259 118.802 20.448 118.695 20.4906 118.6C20.5316 118.508 20.5787 118.435 20.636 118.332L20.74 118.14C20.7469 118.128 20.7557 118.113 20.763 118.102C20.77 118.091 20.7796 118.077 20.7868 118.066L21.2896 117.329C21.355 117.227 21.3777 117.189 21.4624 117.088C21.8325 116.648 21.4995 116.91 21.8937 116.511C21.902 116.502 21.9143 116.49 21.9225 116.481L23.7182 114.793C23.8918 114.656 24.017 114.552 24.1759 114.426L26.2424 113.196C26.734 113.023 26.4485 112.981 26.7308 112.865C26.8408 112.547 26.9703 112.356 27.056 112.05C27.4974 110.478 27.3878 111.084 27.6242 109.441C27.3367 109.398 26.5231 109.696 26.2142 109.786C26.1064 109.817 26.0605 109.821 25.9408 109.866L23.3167 111.183C23.3043 111.189 23.288 111.196 23.2757 111.202L21.2017 112.733C20.623 113.225 19.9603 113.998 19.6302 114.294L18.2841 116.083L16.6969 119.342C16.6516 119.506 16.5655 120.14 16.3173 120.303L16.3166 120.304Z" fill="#FCC304"/>
<path fill-rule="evenodd" clip-rule="evenodd" d="M63.3781 108.952L62.6042 108.951C62.4414 109.265 62.4492 110.135 62.3584 110.593C62.3078 110.847 62.2395 111.114 62.1937 111.376C62.1377 111.696 62.0625 111.907 62.0228 112.164L63.9056 112.135C63.9647 112.254 63.9844 112.354 64.0416 112.457L64.0821 112.156L65.0501 112.332C65.3135 112.411 65.6848 112.363 65.8663 112.427C66.102 112.51 65.754 112.467 66.5196 112.637C66.5766 112.65 66.7182 112.671 66.7614 112.686C66.9344 112.748 66.7553 112.678 66.8777 112.748C67.076 112.862 67.4923 112.949 67.7464 113.1C68.08 113.287 68.5014 113.448 68.8396 113.629C70.3842 114.454 71.9237 115.86 72.9277 117.275C73.6989 118.362 73.5011 118.167 74.0726 119.223C74.0838 119.239 74.1179 119.314 74.1278 119.326L74.4199 119.509C74.678 119.634 74.8925 119.64 75.4419 119.893L75.7248 119.945C76.4318 119.992 76.0746 119.988 76.499 120.087C76.7363 120.143 77.7232 120.37 77.7533 120.086C77.6352 119.089 76.5474 117.045 76.0629 116.256C74.6554 113.964 72.7731 112.205 70.481 110.91C69.8855 110.574 69.3107 110.299 68.6455 110.027C68.3069 109.888 67.9814 109.781 67.6462 109.664C67.3747 109.569 66.8181 109.479 66.6068 109.353C66.5004 109.317 66.3399 109.335 65.8237 109.189C65.4816 109.092 63.5359 108.879 63.3779 108.952H63.3781Z" fill="#029248"/>
<path fill-rule="evenodd" clip-rule="evenodd" d="M32.2791 112.122C33.2701 115.38 35.2425 118.475 37.9348 120.426C40.0351 121.948 41.0376 122.288 43.4713 123.03C44.001 123.134 44.4188 123.231 44.9695 123.316C45.5097 123.398 46.0668 123.407 46.6428 123.466L47.5671 123.478C47.6159 122.844 47.6578 122.378 47.7588 121.808C47.8057 121.542 47.844 121.285 47.9096 120.991C47.9702 120.719 48.0439 120.646 48.0654 120.255L46.1447 120.248C45.4291 120.135 44.855 120.109 44.1423 119.921C43.6245 119.783 42.7716 119.564 42.4097 119.327C41.7729 119.146 40.8428 118.557 40.3475 118.235C38.2518 116.874 37.0012 114.912 35.8811 112.795C35.0749 112.17 32.2426 111.729 32.2793 112.122H32.2791Z" fill="#231C16"/>
<path fill-rule="evenodd" clip-rule="evenodd" d="M37.4215 113.769C37.7236 113.9 39.3386 115.086 39.5638 115.348L41.4512 117.536C41.5554 117.77 42.3804 118.877 42.4095 119.328C42.7712 119.565 43.6243 119.784 44.1421 119.922C44.8549 120.111 45.4289 120.136 46.1445 120.249L45.892 120.176C46.0643 120.134 45.9974 120.139 46.0746 120.083C45.8833 118.123 44.2707 115.957 43.163 114.513C40.1707 111.396 39.1028 110.962 35.2258 109.642C34.6026 109.506 33.5236 109.303 32.8687 109.255C32.3506 109.217 31.2871 109.086 30.8651 109.083C30.8336 109.917 30.5318 111.375 30.3541 111.939C30.6929 112.157 31.8071 111.991 32.2734 112.014C34.2527 111.983 35.8404 112.556 37.4213 113.769H37.4215Z" fill="#FCC304"/>
<path d="M13.759 72.7914H8.7157L2.68714 84.2395H7.73046L13.759 72.7914Z" fill="#232A33"/>
<path d="M19.6879 72.8433H14.6446L8.61603 84.2914H13.6594L19.6879 72.8433Z" fill="#232A33"/>
</g>
<defs>
<clipPath id="clip0_45_2">
<rect width="96" height="140" fill="white"/>
</clipPath>
</defs>
</svg>
