<svg width="32" height="32" viewBox="0 0 32 32" fill="none" xmlns="http://www.w3.org/2000/svg">
<path fill-rule="evenodd" clip-rule="evenodd" d="M4.19465 2.33325C3.93747 1.74462 3.35011 1.33325 2.66667 1.33325C1.74619 1.33325 1 2.07944 1 2.99992V4.99992C1 5.92039 1.74619 6.66659 2.66667 6.66659C3.35011 6.66659 3.93747 6.25522 4.19465 5.66659H4.36157C4.45254 7.22319 4.76512 8.54937 5.32477 9.65752C6.01808 11.0303 7.03985 11.9666 8.25456 12.574C9.43116 13.1623 10.7439 13.4205 12.0273 13.5444C12.3396 13.5745 12.6575 13.5972 12.9786 13.6143C12.8665 17.8029 12.3129 21.7557 11.2963 26.9998H9.99988C9.07941 26.9998 8.33322 27.746 8.33322 28.6665C8.33322 29.5869 9.07941 30.3331 9.99988 30.3331H12.6665C13.461 30.3331 14.145 29.7724 14.3009 28.9933C15.1025 24.9851 15.6716 21.6623 15.9999 18.4656C16.3282 21.6622 16.8973 24.9851 17.6989 28.9933C17.8547 29.7724 18.5387 30.3331 19.3332 30.3331H21.9999C22.9204 30.3331 23.6665 29.5869 23.6665 28.6665C23.6665 27.746 22.9204 26.9998 21.9999 26.9998H20.7035C19.6869 21.7558 19.1334 17.8029 19.0213 13.6143C19.3425 13.5972 19.6603 13.5745 19.9726 13.5444C21.256 13.4205 22.5688 13.1623 23.7454 12.574C24.9601 11.9667 25.9819 11.0304 26.6752 9.6576C27.2349 8.54946 27.5475 7.2233 27.6384 5.66672H27.8053C28.0625 6.25536 28.6499 6.66672 29.3333 6.66672C30.2538 6.66672 31 5.92053 31 5.00006V3.00006C31 2.07958 30.2538 1.33339 29.3333 1.33339C28.6499 1.33339 28.0625 1.74475 27.8053 2.33339H24.1947C23.9375 1.74475 23.3501 1.33339 22.6667 1.33339C21.7462 1.33339 21 2.07958 21 3.00006V5.00006C21 5.92053 21.7462 6.66672 22.6667 6.66672C23.3501 6.66672 23.9375 6.25536 24.1947 5.66672H24.2978C24.2136 6.79054 23.9869 7.58652 23.6998 8.15488C23.3515 8.84458 22.8733 9.28329 22.2547 9.5926C21.5979 9.92097 20.7441 10.1211 19.6524 10.2264C18.5598 10.3319 17.3521 10.3333 16 10.3333C14.6478 10.3333 13.4401 10.3319 12.3475 10.2264C11.2559 10.1211 10.402 9.92096 9.74531 9.59259C9.12671 9.28328 8.64852 8.84457 8.30018 8.15484C8.01313 7.58645 7.78641 6.79045 7.70215 5.66659H7.80535C8.06253 6.25522 8.64989 6.66659 9.33333 6.66659C10.2538 6.66659 11 5.92039 11 4.99992V2.99992C11 2.07944 10.2538 1.33325 9.33333 1.33325C8.64989 1.33325 8.06253 1.74462 7.80535 2.33325H4.19465ZM12.6666 5.66658C12.6667 3.82566 14.159 2.33329 16 2.33325C17.8409 2.33321 19.3333 3.82561 19.3333 5.66658C19.3333 7.5075 17.8409 8.99988 16 8.99992C14.159 8.99996 12.6666 7.50756 12.6666 5.66658Z" fill="#26272B"/>
</svg>
